<?xml version="1.0" encoding="UTF-8"?>
<svg version="1.1" viewBox="0 0 2048 609" width="1280" height="1280" xmlns="http://www.w3.org/2000/svg">
<path transform="translate(0)" d="m0 0h2048v609h-2048z" fill="#ff000000"/>
<path transform="translate(235,82)" d="m0 0h23l21 3 20 6 16 7 13 7 14 10 12 11 7 7 10 13 10 17 7 17 5 17 2 16 1 198v32l-7 4h-8l-4-3-1-3-1-209-2-23-4-17-6-15-8-15-12-16-13-13-18-12-16-8-18-6-16-3h-32l-22 5-15 6-17 9-14 11-15 15-9 13-9 17-7 21-2 12-1 17-1 231-6 5-6 1-9-6v-222l1-20 3-21 5-18 8-18 11-18 12-14 13-13 13-10 13-8 13-6 18-6 20-4z" fill="#AFC48A"/>
<path transform="translate(782,176)" d="m0 0h19l12 3 15 8 10 9 9 14 6 16 1 14-3 14-5 12-8 11-7 7-11 7-18 6h-20l-18-5-1 46-11-3-21-7v-94l2-15 5-12 7-10 9-9 14-8z" fill="#AEC389"/>
<path transform="translate(1355,175)" d="m0 0h32v119l-1 2h-30l-3-4-6 1-12 4h-17l-14-4-11-6-10-9-6-7-8-16-3-13v-15l3-13 6-11 9-10 7-6 12-7 13-4h20l13 4 4 1z" fill="#AFC48A"/>
<path transform="translate(644,128)" d="m0 0h20l16 4 16 8 15 10-1 5-13 17-4 6-4-2-18-11-11-4h-13l-8 5-4 8 1 6 6 5 17 8 21 9 15 8 12 11 5 10 2 8v17l-3 10-6 10-7 7-14 8-15 5-5 1h-18l-16-4-14-6-11-8-13-11 1-4 12-14 7-8h4l9 10 10 7 10 4 4 1h10l9-2 6-4 4-4 1-9-5-6-12-7-20-8-16-8-9-6-8-8-5-8-4-13v-11l4-13 6-10 7-7 14-8z" fill="#AEC389"/>
<path transform="translate(911,176)" d="m0 0h14l16 4 14 7 10 9 7 10 6 13 2 10 1 10v13l-84 1 4 5 11 5 3 1h12l11-6 6 1 12 11 7 8-5 5-9 6-11 5-13 3h-8l-15-3-16-8-10-9-7-8-7-14-3-14v-11l4-15 8-15 9-10 14-9 12-4z" fill="#AFC489"/>
<path transform="translate(1453,176)" d="m0 0h30l4 6 11 26 14 33 1 1 11-27 12-30 4-9h34l-3 10-11 28-17 41-14 35-17 42-3 6h-34l2-6 13-32 5-14-1-7-9-20-15-34-11-24-10-24z" fill="#AEC389"/>
<path transform="translate(1887,173)" d="m0 0 35 1v34l-48 1v7l7 2 14 2 11 4 10 9 6 10 3 9v13l-5 12-7 9-9 6-10 4-6 1h-52v-33l1-1 51-1 2-1 1-7-23-3-9-4-9-6-6-8-5-12-1-5v-8l3-10 6-10 9-8 8-4 8-2z" fill="#AFC48A"/>
<path transform="translate(1036,176)" d="m0 0h21l12 3 13 7 11 9 4 5-2 4-17 12-5 3-4-1-9-7-6-2h-11l-10 4-6 5-5 8-1 3v15l4 8 5 6 12 6h11l12-6 5-4 5 1 12 8 11 8-2 4-11 10-14 8-13 4h-19l-15-4-12-7-12-12-7-11-4-9-2-12v-16l5-15 6-10 9-10 11-8 11-5z" fill="#AFC489"/>
<path transform="translate(1773,175)" d="m0 0 14 1 15 4 11 6 10 9 5 6-1 3-16 10-9 6-8-7-10-4h-12l-10 5-8 9-3 7-1 8 3 10 6 9 8 5 6 2h11l9-4 8-7 5 1 12 9 9 6-1 5-7 8-11 8-12 5-15 3-13-1-12-4-13-7-10-9-7-10-5-11-3-11v-19l4-13 6-11 9-10 8-7 14-7z" fill="#AFC48A"/>
<path transform="translate(1143,139)" d="m0 0h3v37l34 1v30h-34l1 28 2 9 6 10 9 7 11 4 5 1v25l-1 7-12-1-15-5-11-6-10-9-9-12-5-11-2-7-1-9v-90z" fill="#AEC389"/>
<path transform="translate(1614,140)" d="m0 0h3v36h20l14 1v30h-34l1 21 3 16 4 8 5 5 8 5 13 4v32l-16-2-13-5-10-6-10-9-7-10-6-13-3-13-1-23v-68l25-8z" fill="#AEC389"/>
<path transform="translate(286,428)" d="m0 0h14l11 4 8 6 8 9 2 4v84l-3 5-4 2-8-1-4-3-1-3v-72l-3-7-5-4h-11l-5 4-2 7-1 35-4 11-9 10-9 6-6 2h-14l-12-6-5-4-6-8-4-9v-11l2-4 5-3h6l5 5 8 16 5 2h6l6-4 3-4 1-4 1-40 3-7 7-9 8-6z" fill="#AFC489"/>
<path transform="translate(1440,124)" d="m0 0h2v172h-32l-1-1v-161l8-3z" fill="#AEC389"/>
<path transform="translate(1259,173)" d="m0 0h5v33l-16 5-6 4-5 4-7 11-2 7-1 11-1 48h-31v-63l4-16 8-15 14-14 13-8 16-5z" fill="#AFC48A"/>
<path transform="translate(240,265)" d="m0 0h10l10 3 8 6 6 8 4 11-1 13-6 23-4 10-6 7-10 5h-9l-10-5-8-9-5-13-6-26 2-11 4-8 8-9 8-4z" fill="#AFC48A"/>
<path transform="translate(1698,172)" d="m0 0h2l-1 125-32-1-1-114 24-7z" fill="#AEC389"/>
<path transform="translate(170,186)" d="m0 0h17l9 4 8 8 5 9 2 8-1 10-5 10-8 8-8 4-4 1h-11l-10-4-8-7-5-6-4-11v-7l4-11 6-8 7-6z" fill="#AFC48A"/>
<path transform="translate(307,186)" d="m0 0h16l8 3 10 9 5 10 1 12-2 9-6 9-7 6-11 4h-11l-10-4-9-8-5-9-1-4v-14l6-12 4-5 9-5z" fill="#AFC48A"/>
<path transform="translate(194,409)" d="m0 0h9l12 3 8 6 7 9 5 11v8l-6 7-6 2-8-5-2-3-3-9-4-5-4-2h-6l-7 6-2 5-1 36-5 6-5 3-5-2-6-7v-41l4-10 6-8 7-6 7-3z" fill="#AFC48A"/>
<path transform="translate(1322,208)" d="m0 0h11l9 4 8 7 4 6 2 8v8l-3 8-7 9-10 6-5 1h-9l-11-4-8-8-4-10-1-9 3-10 7-9 8-5z" fill="#ff000000"/>
<path transform="translate(789,208)" d="m0 0h8l9 3 10 9 4 7 1 4v10l-4 10-7 8-9 5-5 1h-9l-9-3-8-7-6-12-1-10 3-9 9-10 6-4z" fill="#ff000000"/>
<path transform="translate(352,395)" d="m0 0 6 2 5 5 1 4v29l2 11 5 9 9 5 12 3 5 4v10l-5 5-2 1h-8l-13-4-11-7-8-9-5-10-2-10v-41l5-5z" fill="#AFC489"/>
<path transform="translate(1125,415)" d="m0 0h5l1 1v66l-4-1-1-2-6 1-5 2h-9l-6-4-6-7-2-8 1-11 5-10 6-5 10-1 9 4 1-1z" fill="#B7CA6C"/>
<path transform="translate(1382,436)" d="m0 0h12l6 4 5 8 1 5v12l-3 7-7 8-5 2h-9l-6-3-1 1-1 22h-5l-1-8v-56h3v2z" fill="#B6CA6E"/>
<path transform="translate(824,423)" d="m0 0 4 1 1 13 10-1 3 2v3l-13 1v23l2 9 1 2 9 1v4l-1 1h-10l-5-3-3-8-1-26-4-4-6-1-3 2-10 30-8 20-8 7-4 2h-7l-1-3 12-6 4-7v-7l-9-21-8-19v-2l6 1 5 8 7 18 3 9 1 1 10-29 3-6 5-1h13v-13z" fill="#A8BC5A"/>
<path transform="translate(142,448)" d="m0 0 8 4 3 5v43l-3 7-4 3-8-1-5-5-1-6v-44z" fill="#AFC48A"/>
<path transform="translate(615,419)" d="m0 0 5 1 7 16 15 45v2h-5l-3-5-6-15h-23l-6 18-7 2 1-5 16-47z" fill="#AABE5C"/>
<path transform="translate(1305,436)" d="m0 0h10l7 8 7-6 3-2h11l5 5 3 8 1 9v24h-6l-1-21-2-14-2-4-7-1-7 4-3 4-1 32h-6l-2-32-4-8-8 1-6 2-1 4v33l-6 1-1-1-1-45h4l3 3z" fill="#B7CA69"/>
<path transform="translate(981,420)" d="m0 0 5 1 5 8 11 30 2 5 2-2 15-41 2-1h6l1 62-2 1-4-1v-27l1-31h-2l-2 10-12 35-3 6h-3l-4-6-5-14-9-27-1-2v56h-4l-1-6v-55z" fill="#ABBF5D"/>
<path transform="translate(1057,436)" d="m0 0h13l6 5 3 8 1 5v27l-5-1-4-2-8 4h-8l-6-3-3-4-1-3v-7l5-5 5-3 8-2 9-1-1-8-4-4h-9l-11 4 1-6 5-3z" fill="#B7CA6C"/>
<path transform="translate(1455,436)" d="m0 0h11l6 3 5 6 2 5v9l-5 2h-25l1 8 4 5 7 3h7l10-2-3 5-6 2h-12l-8-5-6-8-2-8 1-9 6-12z" fill="#B7CA69"/>
<path transform="translate(1160,436)" d="m0 0h10l6 4 5 6 3 12-3 2-6 1h-24l3 9 6 6 3 1h10l8-1-1 3-7 3h-13l-8-5-6-9-1-4v-10l4-10 5-5z" fill="#A9BD5D"/>
<path transform="translate(1384,441)" d="m0 0h7l6 4 3 6 1 7-2 9-5 8-6 3-11-2-2-2-1-8v-15l3-7z" fill="#ff000000"/>
<path transform="translate(1108,441)" d="m0 0h9l7 4 1 8v13l-3 7-5 4-7 1-5-3-5-6-2-6v-7l3-8 4-5z" fill="#ff000000"/>
<path transform="translate(1227,420)" d="m0 0h9l11 4 3 3v3l-10-3-2-1h-9l-6 4-3 4 1 5 5 4 18 8 7 8 1 2-1 10-4 6-6 4-3 1h-13l-8-4-4-4-1-4h3l10 6h13l5-4 2-5-1-5-4-4-19-10-6-6-1-3v-7l3-6 5-4z" fill="#AABE5C"/>
<path transform="translate(651,436)" d="m0 0 3 1 1 4 15-5h8l6 4 3 9v33h-6l-1-28-2-10-3-2-8 1-7 3-2 4v21l1 11h-6l-1-4-2-41z" fill="#B7CA6D"/>
<path transform="translate(714,436)" d="m0 0h12l5 4 3 5 1 4v32l-4-1v-4l-12 6h-9l-6-4-2-4v-10l5-5 8-3 12-1v4l-12 2-6 4-2 5 3 6 2 1h8l7-4 1-1v-25l-5-5h-9l-11 4 1-5 4-3z" fill="#A8BC58"/>
<path transform="translate(242,287)" d="m0 0h7l5 3 3 4-1 10-6 23-2 3-4-2-5-13-3-13v-9l4-5z" fill="#ff000000"/>
<path transform="translate(824,423)" d="m0 0 4 1 1 13 10-1 3 2v3l-13 1v23l2 9 1 2 9 1v4l-1 1h-10l-5-3-3-8-1-26-2-4 2-3h-12v-1h13v-13z" fill="#B7CA69"/>
<path transform="translate(1023,420)" d="m0 0h6l1 62-2 1-4-1v-27l1-31h-2l-2 10-12 35-3 6h-3v-3h2l3-7h-2l2-9 13-35z" fill="#A9BD58"/>
<path transform="translate(928,436)" d="m0 0h7l9 3 1 4-7-1h-10l-6 3 1 5 8 5 11 6 5 6-1 7-6 7-3 1h-12l-8-4-1-5 4 1 7 3h7l5-3 1-6-6-5-13-7-3-3-1-8 3-5 4-3z" fill="#A9BE5C"/>
<path transform="translate(889,436)" d="m0 0h8l9 3v4l-7-1h-10l-6 5-3 6v11l5 9 5 4h9l5-3 3 1-2 4-6 3h-12l-6-4-6-7-2-7v-11l4-9 5-5z" fill="#A9BD5B"/>
<path transform="translate(914,208)" d="m0 0h12l12 6 7 6v1h-48l2-4 8-6z" fill="#ff000000"/>
<path transform="translate(1421,415)" d="m0 0h6l1 45 1 14 3 9-8-1-2-5-1-10z" fill="#B7CB6A"/>
<path transform="translate(614,420)" d="m0 0h3l-1 9-8 25-1 4h19v3l-21 2-6 18-7 2 1-5 16-47z" fill="#A8BC5A"/>
<path transform="translate(752,415)" d="m0 0h6l1 58 5 10-7-1-4-4-1-3z" fill="#A9BD5E"/>
<path transform="translate(617,423)" d="m0 0 2 4 8 29-1 3-19-1 1-7 7-22z" fill="#ff000000"/>
<path transform="translate(1164,440)" d="m0 0 7 1 6 7 2 8-3 1-26 1 2-8 7-8z" fill="#ff000000"/>
<path transform="translate(1459,440)" d="m0 0 7 1 7 5 1 2v8l-2 1-24 1v-7l5-8z" fill="#ff000000"/>
<path transform="translate(312,208)" d="m0 0h7l5 3 2 2 1 6-3 5-5 4h-7l-6-5-1-9 4-5z" fill="#ff000000"/>
<path transform="translate(1063,459)" d="m0 0h9l1 2v10l-5 5-6 2-7-1-4-4-1-6 7-6z" fill="#ff000000"/>
<path transform="translate(173,208)" d="m0 0h11l5 5v8l-4 5-4 2-7-1-5-5-1-6 3-6z" fill="#ff000000"/>
<path transform="translate(313,396)" d="m0 0 7 1 6 6v8l-7 6h-6l-7-6-1-7 6-7z" fill="#AFC488"/>
<path transform="translate(1108,436)" d="m0 0 9 1 5 2 1 5-6-2h-9l-5 5-3 5-1 4v7l4 9 2 4-4-1 5 6-5-2-7-8-2-8 1-11 5-10 6-5z" fill="#A8BC59"/>
<path transform="translate(137,410)" d="m0 0h10l5 4v11l-3 3-9 1-7-3v-13z" fill="#AFC489"/>
<path transform="translate(670,436)" d="m0 0h8l6 4 3 9v33h-6l-1-28-2-10-3-2-6-1z" fill="#A9BD5B"/>
<path transform="translate(173,505)" d="m0 0 5 1 7 6 1 4-4 6-5 4-5-1-5-5-2-3 1-6 5-5z" fill="#B5C968"/>
<path transform="translate(721,455)" d="m0 0h6v4l-12 2-6 4-2 5 3 6 2 1h8l7-4 1-1 1-15h1l1 19-12 6h-9l-6-4-2-4v-10l5-5 8-3z" fill="#A9BD5C"/>
<path transform="translate(804,438)" d="m0 0h17l-1 3-9-1-3 2-10 30-3 8h-2l-2 2-4-10v-5l4 6 10-29z" fill="#A8BC5C"/>
<path transform="translate(854,436)" d="m0 0 6 1v45h-6l-1-7v-38z" fill="#AABE5D"/>
<path transform="translate(1227,420)" d="m0 0h9l11 4 3 3v3l-10-3-2-1h-9l-6 4-3 4 1 7h-2l3 5 11 6-3 1-10-6-5-5-1-3v-7l3-6 5-4z" fill="#A9BD5B"/>
<path transform="translate(1265,437)" d="m0 0h7v30l-1 15h-6z" fill="#B6C96F"/>
<path transform="translate(1455,436)" d="m0 0h11l6 3 5 6 2 5v9l-5 2h-13l-2-3 12-1 3-1-2-10-6-4-7-1-6 3-4 4v-4h-2l2-5z" fill="#A8BD5B"/>
<path transform="translate(1063,455)" d="m0 0h9l-1 3-8 2-9 4-3 3 1 6 1 3 9 1 8-2-2 5-5 2h-8l-6-3-3-4-1-3v-7l5-5 5-3z" fill="#AABE5D"/>
<path transform="translate(1391,437)" d="m0 0 7 1 5 6 3 9v12l-3 7-7 8-3-1 5-4 1-7 1-12-3-9-7-7 2-1z" fill="#A9BD59"/>
<path transform="translate(938,460)" d="m0 0 4 1 5 6-1 7-6 7-3 1h-12l-8-4-1-5 4 1 7 3h7l5-3 1-6-5-5 1-2 2 1z" fill="#A8BD58"/>
<path transform="translate(1341,437)" d="m0 0 5 1 4 7 2 13v24h-6v-26l2-4-3-9-2-4z" fill="#A8BC56"/>
<path transform="translate(1023,420)" d="m0 0 4 1h-2v3h-2l-2 10-12 35-3 6h-3v-3h2l3-7h-2l2-9 13-35z" fill="#A9BD5F"/>
<path transform="translate(769,436)" d="m0 0 6 1 5 8 7 18-1 4h-5l-12-29z" fill="#B6C969"/>
<path transform="translate(1057,436)" d="m0 0h13l6 5 2 4v6l-1-2-5-2-5-5h-9l-11 4 1-6 5-3z" fill="#A9BD59"/>
<path transform="translate(1221,440)" d="m0 0 24 12 3 4-3 6-9-6-4-3-11-7-2-2v-3z" fill="#B7CB6A"/>
<path transform="translate(1289,449)" d="m0 0 5 1 2 32-6 1-1-1z" fill="#A7BB55"/>
<path transform="translate(994,445)" d="m0 0h3l7 19 4 1-2 7-5 1-6-14-2-10z" fill="#B7CA6B"/>
<path transform="translate(1127,465)" d="m0 0h1v10l-2 4-6 1-5 2h-9l-6-7 1-2 4 2 5 2 7-1 5-4 2-6z" fill="#B7CB6B"/>
<path transform="translate(655,453)" d="m0 0h1l1 15 2 12v2h-6l-1-4v-23z" fill="#A9BD59"/>
<path transform="translate(1369,451)" d="m0 0h1l1 32h3v19h-5z" fill="#A7BB51"/>
<path transform="translate(982,421)" d="m0 0 5 1 6 12 3 8v5l-4 2-7-21-1-6z" fill="#AABE5B"/>
<path transform="translate(920,445)" d="m0 0 2 3 5 5 12 6-1 3-4 1-13-7-3-3 1-6z" fill="#ACC060"/>
<path transform="translate(1445,469)" d="m0 0 4 5 5 4 2 1v-2h12l10-2-3 5-6 2h-12l-8-5-4-5z" fill="#A9BD5B"/>
<path transform="translate(752,417)" d="m0 0h3l1 9v19l-2 2-2 4z" fill="#B9CC67"/>
<path transform="translate(1267,457)" d="m0 0 4 2v23h-6z" fill="#A7BB52"/>
<path transform="translate(823,466)" d="m0 0 5 10 1-2h2l1 2 9 1v4l-1 1h-10l-5-3-2-4z" fill="#A9BD5A"/>
<path transform="translate(904,474)" d="m0 0 3 1-2 4-6 3h-12l-6-4-2-3 8 4v-2h12z" fill="#A9BD58"/>
<path transform="translate(174,511)" d="m0 0 4 1 1 13-4-1-4-8 2-4z" fill="#AFC489"/>
<path transform="translate(1447,453)" d="m0 0h1v5l3-1h20v1l-9 1-1 2h-12l-2 2z" fill="#AFC48A"/>
<path transform="translate(614,458)" d="m0 0h12v3l-6 1h-14l2-1v-2z" fill="#A7BB52"/>
<path transform="translate(878,466)" d="m0 0h3l5 8 2 3-1 2-4-1-5-6-1-5z" fill="#B7CA68"/>
<path transform="translate(1127,465)" d="m0 0h1v10l-2 4-3-1-1-6 2-6z" fill="#B4C876"/>
<path transform="translate(1341,437)" d="m0 0 5 1 4 7 1 8-4-2-3-11z" fill="#A9BD59"/>
<path transform="translate(1053,437)" d="m0 0 4 1 1 4-11 4 1-6z" fill="#B3C667"/>
<path transform="translate(854,418)" d="m0 0 5 1 1 5-1 1h-6l-2-5z" fill="#A8BD5E"/>
<path transform="translate(1125,415)" d="m0 0h5v17h-1l-1-9-2-1-1 3z" fill="#A7BB51"/>
<path transform="translate(1129,463)" d="m0 0h1l1 19-4-1 1-17z" fill="#A7BB55"/>
<path transform="translate(1267,418)" d="m0 0 5 1 1 3-3 3-5-1v-5z" fill="#A8BC58"/>
<path transform="translate(1472,456)" d="m0 0h2v5h-13l-2-3 12-1z" fill="#B8CB69"/>
<path transform="translate(787,467)" d="m0 0 4 6 2-2v9l-2 2-4-10z" fill="#B7CA6D"/>
<path transform="translate(981,420)" d="m0 0 4 1-1 3-1 7-3 1-1-11z" fill="#B4C771"/>
<path transform="translate(173,505)" d="m0 0 5 1 6 5-1 2-5-4h-8l1-3z" fill="#A8BC5B"/>
<path transform="translate(929,455)" d="m0 0 6 2 4 3-1 2-7-2-4-4z" fill="#B8CB67"/>
<path transform="translate(1422,464)" d="m0 0 2 3 2 13h-3l-1-3z" fill="#A9BD59"/>
<path transform="translate(729,457)" d="m0 0h1l1 19-4 1v-2l-2-1 3-2z" fill="#B3C779"/>
<path transform="translate(724,475)" d="m0 0h3l-1 4-4 2h-3l1-4z" fill="#ACC060"/>
</svg>
